<svg 
     xmlns="http://www.w3.org/2000/svg"
     viewBox="0 0 366 366">
	
	<g>
		<path fill="#FFFFFF" d="m182.9 328.2c-22.9 0-41.4-18.6-41.4-41.5 0-23 18.5-41.5 41.4-41.5 23 0 41.5 18.5 41.5 41.5 0 22.9-18.5 41.5-41.5 41.5z" />
		<path fill="#FFFFFF" d="m182.9 176c-35.6 0-69.3 17.4-90 46.4-6 8.3-4 19.8 4.2 25.8 3.3 2.3 7 3.4 10.7 3.4 5.8 0 11.5-2.7 15.1-7.7 13.8-19.4 36.3-31 60-31 23.8 0 46.3 11.6 60.1 31 5.9 8.3 17.5 10.2 25.7 4.3 8.3-6 10.3-17.5 4.3-25.8-20.7-29-54.4-46.4-90.1-46.4z" />
		<path fill="#888888" d="m182.9 106.9c-50.9 0-99.6 21.7-133.7 59.6-6.8 7.6-6.2 19.3 1.4 26.1 3.5 3.2 7.9 4.7 12.3 4.7 5 0 10.1-2.1 13.7-6.1 27.1-30.2 65.9-47.4 106.3-47.4 40.5 0 79.3 17.2 106.4 47.4 6.8 7.6 18.5 8.2 26 1.4 7.6-6.8 8.2-18.5 1.4-26.1-34.1-37.9-82.8-59.6-133.8-59.6z" />
		<path fill="#888888" d="m360.6 112.3c-47.2-48.1-110.3-74.6-177.7-74.6-67.3 0-130.4 26.5-177.6 74.6-7.2 7.3-7 18.9 0.2 26.1 3.6 3.5 8.3 5.3 12.9 5.3 4.8 0 9.6-1.9 13.2-5.6 40.2-40.9 94-63.5 151.3-63.5 57.4 0 111.2 22.6 151.4 63.5 7.1 7.3 18.8 7.4 26.1 0.3 7.2-7.2 7.3-18.8 0.2-26.1z" />
	</g>
</svg>