
<svg xmlns="http://www.w3.org/2000/svg" viewBox="0 0 3001 3001" fill="#ffffff">
    <path d="M 846.660156 860.578125 C 788.433594 860.578125 741.230469 813.378906 741.230469 755.148438 C 741.230469 696.921875 788.433594 649.71875 846.660156 649.71875 C 904.886719 649.71875 952.089844 696.921875 952.089844 755.148438 C 952.089844 813.378906 904.886719 860.578125 846.660156 860.578125 Z M 2548.699219 1209.050781 C 2520.371094 1177.421875 2469.089844 1182.171875 2447.410156 1218.691406 C 2414.460938 1274.199219 2367 1319.328125 2316.519531 1355.398438 C 2204.238281 1435.699219 2068.238281 1475.589844 1930.300781 1475.589844 L 1549.519531 1475.589844 C 1517.179688 1475.589844 1501.878906 1457.378906 1496.878906 1430.539062 C 1490.398438 1395.78125 1505.101562 1360.5 1532.558594 1338.21875 C 1671.5 1225.480469 1760.378906 1053.460938 1760.378906 860.578125 C 1760.378906 506.558594 1461.261719 222.410156 1101.96875 247.070312 C 827.394531 265.910156 600.933594 468.921875 544.210938 731.261719 C 541.5625 743.5 531.921875 752.960938 519.671875 755.558594 C 427.691406 775.070312 331.730469 783.960938 277.066406 787.738281 C 254.378906 789.320312 240.777344 813.421875 250.894531 833.78125 C 317.976562 968.789062 436.007812 1064.851562 541.40625 1128.5 C 584.421875 1154.480469 622.347656 1188.078125 652.511719 1228.269531 L 654.597656 1231.050781 C 681.945312 1267.488281 688.742188 1316.078125 670.222656 1357.710938 C 655.695312 1390.371094 635.800781 1405.300781 635.800781 1405.300781 C 387.335938 1626.179688 336.378906 1829.128906 337.082031 2002.738281 C 337.785156 2234.859375 465.761719 2430.871094 665.847656 2548.511719 C 1145.578125 2830.578125 1795.699219 2756.558594 2102.5 2637.070312 C 2337.441406 2545.519531 2560.890625 2389.28125 2658.820312 2157.019531 C 2859.191406 1681.828125 2674.828125 1349.890625 2548.699219 1209.050781 " />
</svg>