<svg id="vector" xmlns="http://www.w3.org/2000/svg" width="512" height="512" viewBox="0 0 512 512"><g transform="translate(81, 145)" id="g_0"><path fill="#f3f7fe" d="M291,107l-2.5,0.1A83.9,83.9 0,0 0,135.6,43A56,56 0,0 0,51,91a56.6,56.6 0,0 0,0.8,9A60,60 0,0 0,63,219l4,-0.2v0.2h224a56,56 0,0 0,0,-112Z" stroke="#e6effc" stroke-width="6"/></g><g transform="translate(191.5, 343.5)" id="g_1"><path fill="#0b65ed" d="M8.5,56.5a8,8 0,0 1,-8,-8v-40a8,8 0,0 1,16,0v40a8,8 0,0 1,-8,8Z" stroke="#0a5ad4"/><path fill="#0a5ad4" d="M64.5,109.5a8,8 0,0 1,-8,-8v-40a8,8 0,0 1,16,0v40a8,8 0,0 1,-8,8Z" stroke="#0a5ad4"/><path fill="#0950bc" d="M120.5,74.5a8,8 0,0 1,-8,-8v-40a8,8 0,0 1,16,0v40a8,8 0,0 1,-8,8Z" stroke="#0a5ad4"/></g></svg>