<svg id="vector" xmlns="http://www.w3.org/2000/svg" width="512" height="512" viewBox="0 0 512 512"><g transform="translate(68, 109)" id="g_0"><path fill="#86c3db" d="M160.6,107.4 A84.8,84.8 0 0,1 75.2,23.1 A83.3,83.3 0 0,1 78,2 A84.7,84.7 0 0,0 2,85.7 A84.8,84.8 0 0,0 87.4,170 A85.2,85.2 0 0,0 170,106.9 A88,88 0 0,1 160.6,107.4Z" stroke-linejoin="round" stroke-linecap="round" stroke="#72b9d5" stroke-width="4"/><g transform="translate(0, 45)"><path fill="#f3f7fe" d="M291,107l-2.5,0.1A83.9,83.9 0,0 0,135.6,43A56,56 0,0 0,51,91a56.6,56.6 0,0 0,0.8,9A60,60 0,0 0,63,219l4,-0.2v0.2h224a56,56 0,0 0,0,-112Z" stroke="#e6effc" stroke-width="6"/></g></g><g transform="translate(205.23, 291)" id="g_1"><g transform="scale(1, 0.9994647)"><path fill="#F7B23B" d="M34.8 2l-32 96h32l-16 80 80 -112h-48l32 -64h-48z" stroke-miterlimit="10" stroke="#F6A823" stroke-width="4"/></g></g></svg>