<svg id="vector" xmlns="http://www.w3.org/2000/svg" width="512" height="512" viewBox="0 0 512 512"><g transform="translate(81, 145)" id="g_0"><path fill="#f3f7fe" d="M291,107 l-2.5,0.1 A83.9,83.9 0 0,0 135.6,43 A56,56 0 0,0 51,91 a56.6,56.6 0 0,0 0.8,9 A60,60 0 0,0 63,219 l4,-0.2 v0.2 h224 a56,56 0 0,0 0,-112 Z" stroke="#e6effc" stroke-width="6" fill-rule="evenodd"/></g><g transform="translate(191.5, 347.5)" id="g_1"><path fill="#0b65ed" d="M8.5,28.5 a8,8 0 0,1 -8,-8 v-12 a8,8 0 0,1 16,0 v12 a8,8 0 0,1 -8,8 Z" stroke="#0a5ad4" stroke-width="1" fill-rule="evenodd"/><path fill="#0b65ed" d="M64.5,108.5 a8,8 0 0,1 -8,-8 v-12 a8,8 0 0,1 16,0 v12 a8,8 0 0,1 -8,8 Z" stroke="#0a5ad4" stroke-width="1" fill-rule="evenodd"/><path fill="#0b65ed" d="M120.5,58.5 a8,8 0 0,1 -8,-8 v-12 a8,8 0 0,1 16,0 v12 a8,8 0 0,1 -8,8 Z" stroke="#0a5ad4" stroke-width="1" fill-rule="evenodd"/></g></svg>