<svg id="vector" xmlns="http://www.w3.org/2000/svg" width="512" height="512" viewBox="0 0 512 512"><g transform="translate(81, 145)" id="g_0"><path fill="#f3f7fe" d="M291,107 L288.5,107.1 A83.9,83.9 0 0,0 135.6,43 A56,56 0 0,0 51,91 A56.6,56.6 0 0,0 51.8,100 A60,60 0 0,0 63,219 L67,218.8 L67,219 H291 A56,56 0 0,0 291,107Z" stroke-linejoin="miter" stroke-linecap="butt" stroke="#e6effc" stroke-width="6"/><g transform="translate(120, 200)"><path fill="#0b65ed" d="M8.5,56.5a8,8 0,0 1,-8,-8v-20a8,8 0,0 1,16,0v20a8,8 0,0 1,-8,8Z" stroke="#0a5ad4"/><path fill="#0a5ad4" d="M64.5,109.5a8,8 0,0 1,-8,-8v-20a8,8 0,0 1,16,0v20a8,8 0,0 1,-8,8Z" stroke="#0a5ad4"/><path fill="#0950bc" d="M120.5,74.5a8,8 0,0 1,-8,-8v-20a8,8 0,0 1,16,0v20a8,8 0,0 1,-8,8Z" stroke="#0a5ad4"/></g><g transform="translate(85, 210) scale(0.7, 0.7)"><path fill="#86c3db" d="M41.7,31 l-5.8,-3.3 a13.7,13.7 0 0,0 0,-6.5 l5.8,-3.2 a4,4 0 0,0 1.5,-5.5 a4,4 0 0,0 -5.6,-1.5 l-5.8,3.3 a13.6,13.6 0 0,0 -2.6,-2 a13.8,13.8 0 0,0 -3,-1.3 V4.5 a4,4 0 0,0 -8.1,0 v6.6 a14.3,14.3 0 0,0 -5.7,3.2 L6.6,11 A4,4 0 0,0 1,12.5 A4,4 0 0,0 2.5,18 l5.8,3.3 a13.7,13.7 0 0,0 0,6.5 L2.5,31 A4,4 0 0,0 1,36.5 a4,4 0 0,0 3.5,2 a4,4 0 0,0 2,-0.5 l5.8,-3.3 a13.6,13.6 0 0,0 2.6,2 a13.8,13.8 0 0,0 3,1.2 v6.6 a4,4 0 0,0 8.2,0 v-6.6 a14.2,14.2 0 0,0 5.6,-3.2 l6,3.3 a4,4 0 0,0 2,0.5 a4,4 0 0,0 3.4,-2 a4,4 0 0,0 -1.4,-5.5 Z" stroke-miterlimit="10" stroke="#86c3db" stroke-width="1"/><g transform="translate(-75, -38)"><path fill="#FFFFFF" d="M98,58a5,5 0 1 1,-0.1,0z" stroke="#FFFFFF" stroke-width="4"/></g></g><g transform="translate(140, 270) scale(0.7, 0.7)"><path fill="#86c3db" d="M41.7,31 l-5.8,-3.3 a13.7,13.7 0 0,0 0,-6.5 l5.8,-3.2 a4,4 0 0,0 1.5,-5.5 a4,4 0 0,0 -5.6,-1.5 l-5.8,3.3 a13.6,13.6 0 0,0 -2.6,-2 a13.8,13.8 0 0,0 -3,-1.3 V4.5 a4,4 0 0,0 -8.1,0 v6.6 a14.3,14.3 0 0,0 -5.7,3.2 L6.6,11 A4,4 0 0,0 1,12.5 A4,4 0 0,0 2.5,18 l5.8,3.3 a13.7,13.7 0 0,0 0,6.5 L2.5,31 A4,4 0 0,0 1,36.5 a4,4 0 0,0 3.5,2 a4,4 0 0,0 2,-0.5 l5.8,-3.3 a13.6,13.6 0 0,0 2.6,2 a13.8,13.8 0 0,0 3,1.2 v6.6 a4,4 0 0,0 8.2,0 v-6.6 a14.2,14.2 0 0,0 5.6,-3.2 l6,3.3 a4,4 0 0,0 2,0.5 a4,4 0 0,0 3.4,-2 a4,4 0 0,0 -1.4,-5.5 Z" stroke-miterlimit="10" stroke="#86c3db" stroke-width="1"/><g transform="translate(-75, -38)"><path fill="#FFFFFF" d="M98,58a5,5 0 1 1,-0.1,0z" stroke="#FFFFFF" stroke-width="4"/></g></g><g transform="translate(255, 240) scale(0.7, 0.7)"><path fill="#86c3db" d="M41.7,31 l-5.8,-3.3 a13.7,13.7 0 0,0 0,-6.5 l5.8,-3.2 a4,4 0 0,0 1.5,-5.5 a4,4 0 0,0 -5.6,-1.5 l-5.8,3.3 a13.6,13.6 0 0,0 -2.6,-2 a13.8,13.8 0 0,0 -3,-1.3 V4.5 a4,4 0 0,0 -8.1,0 v6.6 a14.3,14.3 0 0,0 -5.7,3.2 L6.6,11 A4,4 0 0,0 1,12.5 A4,4 0 0,0 2.5,18 l5.8,3.3 a13.7,13.7 0 0,0 0,6.5 L2.5,31 A4,4 0 0,0 1,36.5 a4,4 0 0,0 3.5,2 a4,4 0 0,0 2,-0.5 l5.8,-3.3 a13.6,13.6 0 0,0 2.6,2 a13.8,13.8 0 0,0 3,1.2 v6.6 a4,4 0 0,0 8.2,0 v-6.6 a14.2,14.2 0 0,0 5.6,-3.2 l6,3.3 a4,4 0 0,0 2,0.5 a4,4 0 0,0 3.4,-2 a4,4 0 0,0 -1.4,-5.5 Z" stroke-miterlimit="10" stroke="#86c3db" stroke-width="1"/><g transform="translate(-75, -38)"><path fill="#FFFFFF" d="M98,58a5,5 0 1 1,-0.1,0z" stroke="#FFFFFF" stroke-width="4"/></g></g></g></svg>