<svg id="vector" xmlns="http://www.w3.org/2000/svg" width="512" height="512" viewBox="0 0 384 384"><g transform="translate(275, 200) rotate(90)" id="g_0"><path fill="#fbbf24" d="M0,0a84,80 0 1,0 0,168a84,0 0 1,0 0,-8z" stroke-miterlimit="10" stroke="#f8af18" stroke-width="6"/></g><path fill="@android:color/transparent" d="M192,61.7V12                           M290,99.8l35,-35                           M99.9,99.8l-35,-35                           M61.7,192H12                           M372,192h-49.7" stroke-linecap="round" stroke-miterlimit="10" stroke="#fbbf24" stroke-width="24" id="path_0"/><g transform="translate(60, 250)" id="g_1"><g transform="translate(-15, 0)"><path fill="#000000" d="M12,60h30" fill-opacity="0" stroke-linecap="round" stroke-miterlimit="10" stroke="#d4d7dd" stroke-width="24"/><path fill="#000000" d="M12,12h30" fill-opacity="0" stroke-linecap="round" stroke-miterlimit="10" stroke="#d4d7dd" stroke-width="24"/></g><g transform="translate(-15, 0)"><path fill="#000000" d="M102,60h90" fill-opacity="0" stroke-linecap="round" stroke-miterlimit="10" stroke="#d4d7dd" stroke-width="24"/><path fill="#000000" d="M102,12h90" fill-opacity="0" stroke-linecap="round" stroke-miterlimit="10" stroke="#d4d7dd" stroke-width="24"/></g><g transform="translate(15, 0)"><path fill="#000000" d="M222,60h30" fill-opacity="0" stroke-linecap="round" stroke-miterlimit="10" stroke="#d4d7dd" stroke-width="24"/><path fill="#000000" d="M222,12h30" fill-opacity="0" stroke-linecap="round" stroke-miterlimit="10" stroke="#d4d7dd" stroke-width="24"/></g></g></svg>