<svg id="vector" xmlns="http://www.w3.org/2000/svg" width="512" height="512" viewBox="0 0 512 512"><path fill="#86c3db" d="M372,295.2l-34.3,-19.7a83.8,83.8 0 0 0 0,-39l34.3,-19.7a24,24 0 1 0 -24,-41.6L313.7,195a81.4,81.4 0 0 0 -33.7,-19.4V136a24,24 0 0 0 -48,0v39.6a84,84 0 0 0 -33.7,19.4L164,175.2a24,24 0 1 0 -24,41.6l34.3,19.7a83.8,83.8 0 0 0 0,39L140,295.1a24,24 0 1 0 24,41.6l34.3,-19.8a80.6,80.6 0 0 0 33.7,19.4V376a24,24 0 0 0 48,0v-39.7a84,84 0 0 0 33.7,-19.3l34.3,19.8a24,24 0 1 0 24,-41.6ZM238,287.2a36,36 0 1 1 49.2,-13.2 36,36 0 0 1 -49.2,13.2Z" stroke-linejoin="round" stroke-linecap="round" stroke="#72b9d5" stroke-width="4" id="path_0"/></svg>