<svg id="vector" xmlns="http://www.w3.org/2000/svg" width="512" height="512" viewBox="0 0 512 512"><g transform="translate(81, 145)" id="g_0"><path fill="#86c3db" d="M160.6,107.4 A84.8,84.8 0 0,1 75.2,23.1 A83.3,83.3 0 0,1 78,2 A84.7,84.7 0 0,0 2,85.7 A84.8,84.8 0 0,0 87.4,170 A85.2,85.2 0 0,0 170,106.9 A88,88 0 0,1 160.6,107.4Z" stroke-linejoin="round" stroke-linecap="round" stroke="#72b9d5" stroke-width="4"/><g transform="translate(180, 10)"><path fill="#9ca3af" d="M0.5,93.2 A32.4,32.4 0 0,0 32.9,125.6 H162.7 L165,125.7 A34.8,34.8 0 0,0 171.5,56.8 A32.4,32.4 0 0,0 123,23.8 A48.6,48.6 0 0,0 34.4,60.9 H32.9 A32.4,32.4 0 0,0 0.5,93.2Z" stroke-linejoin="miter" stroke-linecap="butt" stroke="#848b98" stroke-width="1"/></g><path fill="#f3f7fe" d="M291,107 L288.5,107.1 A83.9,83.9 0 0,0 135.6,43 A56,56 0 0,0 51,91 A56.6,56.6 0 0,0 51.8,100 A60,60 0 0,0 63,219 L67,218.8 L67,219 H291 A56,56 0 0,0 291,107Z" stroke-linejoin="miter" stroke-linecap="butt" stroke="#e6effc" stroke-width="6"/></g></svg>