<svg id="vector" xmlns="http://www.w3.org/2000/svg" width="512" height="512" viewBox="0 0 512 512"><g transform="translate(68, 109)" id="g_0"><g transform="translate(0, 45)"><path fill="#f3f7fe" d="M291,107l-2.5,0.1A83.9,83.9 0,0 0,135.6,43A56,56 0,0 0,51,91a56.6,56.6 0,0 0,0.8,9A60,60 0,0 0,63,219l4,-0.2v0.2h224a56,56 0,0 0,0,-112Z" stroke="#e6effc" stroke-width="6"/></g></g><g transform="translate(205.23, 291)" id="g_1"><g transform="scale(1, 0.9994647)"><path fill="#F7B23B" d="M34.8 2l-32 96h32l-16 80 80 -112h-48l32 -64h-48z" stroke-miterlimit="10" stroke="#F6A823" stroke-width="4"/></g></g></svg>