<svg id="vector" xmlns="http://www.w3.org/2000/svg" width="512" height="512" viewBox="0 0 512 512"><g transform="translate(81, 145)" id="g_0"><g transform="translate(-20 , -30)"><path fill="#FBBF24" d="M138 98A40 40 0 0 1 58 98A40 40 0 0 1 138 98Z" stroke-miterlimit="10" stroke="#F8AF18" stroke-width="4"/><path fill="none" d="M98 31.4V6m0 184v-25.4M145.1 51l18 -17.9M33 163l18 -17.9M51 51L33 33m130.1 130.1l-18 -18M6 98h25.4M190 98h-25.4" stroke-linecap="round" stroke-miterlimit="10" stroke="#FBBF24" stroke-width="12"/></g><path fill="#f3f7fe" d="M291,107 L288.5,107.1 A83.9,83.9 0 0,0 135.6,43 A56,56 0 0,0 51,91 A56.6,56.6 0 0,0 51.8,100 A60,60 0 0,0 63,219 L67,218.8 L67,219 H291 A56,56 0 0,0 291,107Z" stroke-linejoin="miter" stroke-linecap="butt" stroke="#e6effc" stroke-width="6"/></g></svg>