<?xml version="1.0" encoding="UTF-8"?>
<svg xmlns="http://www.w3.org/2000/svg" xmlns:xlink="http://www.w3.org/1999/xlink" width="252pt" height="252pt" viewBox="0 0 252 252" version="1.1">
<g id="surface1">
<path fill="#ffffff" d="M 241.5 42 L 126 42 L 99.75 21 L 10.5 21 C 4.699219 21 0 25.699219 0 31.5 L 0 210 C 0 215.796875 4.699219 220.5 10.5 220.5 L 42 220.5 L 42 225.75 C 42 228.648438 44.351562 231 47.25 231 L 78.75 231 C 81.648438 231 84 228.648438 84 225.75 L 84 220.5 L 168 220.5 L 168 225.75 C 168 228.648438 170.351562 231 173.25 231 L 204.75 231 C 207.648438 231 210 228.648438 210 225.75 L 210 220.5 L 241.5 220.5 C 247.300781 220.5 252 215.796875 252 210 L 252 52.5 C 252 46.699219 247.300781 42 241.5 42 Z M 241.5 42 "/>
<path fill="#00000" d="M 199.5 126 L 52.5 126 C 46.699219 126 42 130.699219 42 136.5 L 42 225.75 C 42 228.648438 44.351562 231 47.25 231 L 78.75 231 C 81.648438 231 84 228.648438 84 225.75 L 84 168 L 168 168 L 168 225.75 C 168 228.648438 170.351562 231 173.25 231 L 204.75 231 C 207.648438 231 210 228.648438 210 225.75 L 210 136.5 C 210 130.699219 205.300781 126 199.5 126 Z M 199.5 126 "/>
<path fill="#000000" d="M 21 36.75 L 94.5 36.75 L 94.5 47.25 L 21 47.25 Z M 21 36.75 "/>
</g>
</svg>
