<svg version="1.2" xmlns="http://www.w3.org/2000/svg" viewBox="0 0 800 800" width="800" height="800">
	<title>New Project</title>
	<style>
		.s0 { fill: #ffffff } 
	</style>
	<g id="Layer 1">
		<g id="Folder 1">
			<path class="s0" d="m503 576.1l-119.6 106.3q-62.1 55.1-144.7 50.2-82.6-4.8-137.7-66.9-55.1-62-50.3-144.6 4.9-82.6 66.9-137.7l119.6-106.3 53.2 59.8-119.6 106.3q-37.4 33.2-40.3 82.6-2.9 49.4 30.3 86.8 33.2 37.3 82.6 40.3 49.4 2.9 86.8-30.3l119.6-106.3zm-9.9-312.3l53.1 59.8-239.2 212.6-53.1-59.8zm69.7 259.1l-53.1-59.8 119.6-106.3q37.3-33.2 40.3-82.6 2.9-49.4-30.3-86.8-33.3-37.4-82.7-40.3-49.4-2.9-86.8 30.3l-119.6 106.3-53.1-59.8 119.6-106.3q62-55.1 144.6-50.3 82.6 4.9 137.8 67 55.1 62 50.2 144.6-4.8 82.6-66.9 137.7z"/>
			<path id="Shape 1" fill-rule="evenodd" class="s0" d=""/>
		</g>
	</g>
</svg>