<svg version="1.2" xmlns="http://www.w3.org/2000/svg" viewBox="0 0 800 800" width="800" height="800">
	<title>link-svg</title>
	<style>
		.s0 { fill: #ffffff } 
	</style>
	<g id="Layer 1">
		<g id="Folder 1">
			<path class="s0" d="m734.9 337.8l-86.1-6.1q22.5-34.9 20.1-75.1-2.4-40.1-30.4-71.4-33.4-37.2-82.8-40-49.4-2.7-86.7 30.7l-119.2 106.7-53.3-59.6 119.2-106.7q61.8-55.4 144.4-50.8 82.6 4.5 138 66.3 38 42.5 48 97.9 10.1 55.5-11.2 108.1zm180.5 168.6l-1039.3-57.3 4.4-79 1039.2 57.2zm-373.8-180.6l-113-6.2 64.1-57.4 53.3 59.6zm-37.7 248.6l-119.2 106.7q-61.9 55.4-144.5 50.8-82.6-4.5-138-66.3-46-51.4-50.7-119.7-4.8-68.2 33.1-124.9l104.5 5.7-17.9 16q-37.3 33.4-40 82.8-2.7 49.4 30.6 86.7 33.4 37.2 82.8 40 49.4 2.7 86.7-30.7l119.2-106.7zm-196.1-39.1l-53.4-59.6 48.4-43.4 112.2 6.9z"/>
		</g>
	</g>
</svg>