
<svg xmlns="http://www.w3.org/2000/svg" xmlns:xlink="http://www.w3.org/1999/xlink" width="2834.88" height="2834.88" viewBox="0 0 2834.88 2834.88" >
<path fill="#ffffff" d="M 1716.269531 1346.640625 C 1762.359375 1300.28125 1820.058594 1260.210938 1880.109375 1223.660156 C 1972.140625 1259.359375 2037.449219 1348.800781 2037.449219 1453.371094 C 2037.449219 1589.308594 1927.089844 1699.671875 1791.148438 1699.671875 C 1711.488281 1699.671875 1640.621094 1661.769531 1595.589844 1603.039062 C 1600.691406 1538.511719 1616.210938 1482.851562 1654.960938 1422.921875 C 1654.878906 1424.390625 1654.839844 1425.871094 1654.839844 1427.371094 C 1654.839844 1473.578125 1692.371094 1511.101562 1738.578125 1511.101562 C 1784.800781 1511.101562 1822.320312 1473.578125 1822.320312 1427.371094 C 1822.320312 1381.148438 1784.800781 1343.628906 1738.578125 1343.628906 C 1730.859375 1343.628906 1723.378906 1344.679688 1716.269531 1346.640625 Z M 1179.691406 1422.921875 C 1218.429688 1482.851562 1233.960938 1538.511719 1239.058594 1603.039062 C 1194.03125 1661.769531 1123.148438 1699.671875 1043.488281 1699.671875 C 907.558594 1699.671875 797.195312 1589.308594 797.195312 1453.371094 C 797.195312 1348.800781 862.511719 1259.359375 954.535156 1223.660156 C 1014.589844 1260.210938 1072.289062 1300.28125 1118.371094 1346.640625 C 1111.269531 1344.679688 1103.789062 1343.628906 1096.058594 1343.628906 C 1049.851562 1343.628906 1012.328125 1381.148438 1012.328125 1427.371094 C 1012.328125 1473.578125 1049.851562 1511.101562 1096.058594 1511.101562 C 1142.28125 1511.101562 1179.800781 1473.578125 1179.800781 1427.371094 C 1179.800781 1425.871094 1179.761719 1424.390625 1179.691406 1422.921875 Z M 1280.628906 1682.78125 C 1282.488281 1667.148438 1283.429688 1651.308594 1282.988281 1635.78125 C 1280.101562 1533.101562 1259.839844 1453.609375 1186.171875 1359.589844 C 1055.878906 1193.308594 778.925781 1098.058594 655.929688 994.03125 C 462.035156 830.050781 469.015625 612.730469 469.015625 612.730469 C 469.015625 612.730469 522.847656 776.21875 672.378906 880.890625 C 821.910156 985.558594 985.285156 992.691406 1142.410156 1077.769531 C 1336.910156 1183.089844 1402.238281 1320.871094 1417.320312 1359.339844 C 1432.398438 1320.871094 1497.738281 1183.089844 1692.238281 1077.769531 C 1849.359375 992.691406 2012.738281 985.558594 2162.269531 880.890625 C 2311.800781 776.21875 2365.628906 612.730469 2365.628906 612.730469 C 2365.628906 612.730469 2372.609375 830.050781 2178.71875 994.03125 C 2055.71875 1098.058594 1778.769531 1193.308594 1648.480469 1359.589844 C 1574.808594 1453.609375 1554.550781 1533.101562 1551.660156 1635.78125 C 1551.21875 1651.308594 1552.148438 1667.148438 1554.019531 1682.78125 C 1609.210938 1761.101562 1700.339844 1812.300781 1803.339844 1812.300781 C 1971.558594 1812.300781 2112.738281 1666.859375 2130.070312 1499.53125 C 2152 1287.738281 2002.390625 1141.089844 2002.390625 1141.089844 C 2132.171875 1211.800781 2220.308594 1349.441406 2220.308594 1507.511719 C 2220.308594 1737.640625 2033.480469 1924.480469 1803.339844 1924.480469 C 1723.800781 1924.480469 1649.429688 1902.160156 1586.148438 1863.441406 L 1417.320312 2221.921875 L 1248.488281 1863.441406 C 1185.21875 1902.160156 1110.851562 1924.480469 1031.300781 1924.480469 C 801.171875 1924.480469 614.332031 1737.640625 614.332031 1507.511719 C 614.332031 1349.441406 702.476562 1211.800781 832.25 1141.089844 C 832.25 1141.089844 682.648438 1287.738281 704.578125 1499.53125 C 721.90625 1666.859375 863.082031 1812.300781 1031.300781 1812.300781 C 1134.300781 1812.300781 1225.441406 1761.101562 1280.628906 1682.78125 Z M 1185.179688 1053.421875 C 1251.390625 1052.488281 1339.691406 1064.820312 1432.839844 1064.820312 C 1517.660156 1064.820312 1592.390625 1054.601562 1649.378906 1053.46875 C 1526.808594 1124.808594 1456.269531 1207.769531 1417.320312 1268.589844 C 1378.371094 1207.75 1307.800781 1124.769531 1185.179688 1053.421875 "/>
</svg>
